<?xml version="1.0"?>
<svg xmlns="http://www.w3.org/2000/svg" xmlns:xlink="http://www.w3.org/1999/xlink" width="300" height="330" viewBox="0 0 908 1000">
  <defs>
    <style>
      .cls-1 {
        fill: none;
      }

      .cls-2 {
        clip-path: url(#clip-KJ_-_Kussmund);
      }

      .cls-3 {
        clip-path: url(#clip-path);
      }

      .cls-4, .cls-7 {
        fill: #ff073a;
      }

      .cls-5 {
        fill: #040405;
      }

      .cls-6 {
        fill: #dc004d;
      }

      .cls-7 {
        stroke: #dc004d;
        stroke-miterlimit: 10;
        stroke-width: 1.224px;
      }
    </style>
    <clipPath id="clip-path">
      <rect id="Rechteck_102" data-name="Rechteck 102" class="cls-1" width="902.681" height="999.888"/>
    </clipPath>
    <clipPath id="clip-KJ_-_Kussmund">
      <rect width="908" height="1000"/>
    </clipPath>
  </defs>
  <g id="KJ_-_Kussmund" data-name="KJ - Kussmund" class="cls-2">
    <g id="Gruppe_85" data-name="Gruppe 85" transform="translate(2.35 0.112)">
      <g id="Gruppe_84" data-name="Gruppe 84" class="cls-3">
        <path id="Pfad_546" data-name="Pfad 546" d="M634.832,294.91a41.214,41.214,0,0,0-37.769-24.272l-3.162.065,1.38-1.376c10.95-10.94,13.776-22.74,14.221-30.711,1.734-31.208-28.138-59.527-34.142-64.886-.141-.128-.289-.25-.432-.369-.128-.111-.252-.213-.376-.311A856.472,856.472,0,0,0,401.035,67.017c-.891-.4-1.532-.691-1.906-.869l-1.317-.619c-.154-.072-.313-.141-.472-.209-33.1-14.232-48.231-18.856-77.09-23.563-14.4-2.349-27.934-2.36-40.218-.035C242.886,48.763,223.02,75.234,207.056,96.5c-7.765,10.348-15.1,20.121-22.612,25.065-3.381,2.223-7.867,3.81-14.117,4.994-5.557,1.054-11.811,1.66-18.435,2.3-7.817.761-15.834,1.543-24.2,3.127-25.361,4.807-61.272,18.146-80.278,78.218a97.679,97.679,0,0,0-3.492,10.264C29.9,271.519,27.559,297.992,24.86,355.306c-1.773,37.617-.582,75.732,3.851,123.582l.552,5.954c.6,4.9,4.488,30.27,22.322,48.263,9.714,9.8,22.053,14.7,34.738,13.791l3.118-.224c2.034-.146,4.251-.413,6.776-.815l2-.319-1.258,1.582c-4.9,6.165-8.238,12.246-9.936,18.072-3.36,11.533-.5,22.642,7.845,30.485,43.33,40.707,74.161,60.063,90.724,70.462,2.078,1.3,3.92,2.462,5.526,3.5q.619.4,1.276.741c.248.128,1.382.708,3.3,1.634l.461.224-.02.511a58.119,58.119,0,0,0,2.375,18.737c8.458,28.459,36.533,45.81,65.305,40.357a57.369,57.369,0,0,0,5.791-1.417,56.253,56.253,0,0,0,33.447-27.253l.243-.45.511.041a176.967,176.967,0,0,0,46.92-2,124.053,124.053,0,0,0,28.262-8.825c38.136-17.372,55.469-32.686,70.764-46.2,8.921-7.882,16.625-14.69,27.723-21.038,11.565-6.615,23.122-10.435,35.357-14.48,13.5-4.464,27.432-9.069,41.72-17.6,38.562-23.011,52.3-50.089,65.585-76.275,1.81-3.573,3.684-7.265,5.609-10.922,1.3-2.488,2.43-5.118,3.52-7.658,1.163-2.714,2.364-5.522,3.76-8.088a15.114,15.114,0,0,0,1.078-2.495l.085-.252c6.209-18.639,35.427-115.494.645-192.023" transform="translate(28.239 46.91)"/>
        <path id="Pfad_547" data-name="Pfad 547" class="cls-4" d="M449.96,188.935l-.026-.083-.007-.089c-.043-.55-.043-1.867.911-2.225,1-.382,1.986.711,2.812,1.825.083.133,2.76,4.97,6.093,12.487a393.387,393.387,0,0,1,24.7,75.636l.276.715a5.444,5.444,0,0,0,5.746,2.814l24.072-4.377.269-.061c14.858-3.938,16.188-14.206,13.5-29.492-2.008-9.9-7.026-19.682-10.346-26.154-1.3-2.532-2.325-4.531-2.916-6.011-2.106-5.246-.83-5.937-.411-6.163.706-.374,1.962-.415,4.766,3.61l1.293,2.247c8.879,15.464,18.943,32.988,21.634,48.4.178.806.472,2.5.556,2.99.485.841,1.289,1.725,1.669,1.662a89.049,89.049,0,0,0,19.573-8.751,60.806,60.806,0,0,0,5.218-3.353l.033-.022h0c9.807-6.967,15.06-15.512,15.61-25.406,1.358-24.422-25.745-49.343-28.84-52.105A839.98,839.98,0,0,0,385.852,72.944c-1-.454-1.717-.778-2.138-.976l-1.3-.611C350.408,57.6,336.7,53.4,309.077,48.893,254.368,39.973,231.435,70.523,211.2,97.48c-8.625,11.489-16.772,22.344-26.6,28.811-10.668,7.017-24.8,8.391-39.766,9.846-7.5.728-15.229,1.48-22.929,2.94-26.436,5.011-52.54,18.363-68.041,67.813l-.091.25a82.064,82.064,0,0,0-3.079,8.962c-13.663,49.717-15.823,74.165-18.515,131.358-1.736,36.848-.563,74.278,3.8,121.361l.5,5.52c.3,2.427,3.34,24.341,17.818,38.947,6.393,6.45,14.306,9.686,22.277,9.114l3.123-.224a62.286,62.286,0,0,0,16.327-3.405,253.635,253.635,0,0,0,31.678-14.01c21.757-11.087,39.149-24.254,50.3-38.076,24.913-29.818,13.163-40.942-3.1-56.341-7.732-7.321-16.5-15.618-22.824-27.242l-.065-.122-.022-.139c-.233-1.56.1-2.59.982-3.058,3.625-1.908,16.083,9.2,34.675,26.375,7.86,7.263,15.284,14.125,18.669,16.307,4.251,2.745,9.129,1.56,13.054-3.164l.15-.141c.1-.074,2.6-1.936,2.312-6.383l-.215-.947c-1.428-3.773-4.583-7.849-8.847-11.374-35.131-29.018-51.7-56.513-62.658-74.708-1.917-3.179-3.57-5.924-5.133-8.356l-.115-.18c-.191-.3-.593-.924.033-1.356.187-.13.68-.361,1.184.317a11.989,11.989,0,0,0,3.012,3.173c13.154,7.619,29.776,18.224,41.69,32.758,5.528,6.745,10.633,13.686,15.571,20.4,13.982,19.015,26.052,35.437,36.722,30.661.1-.046.237-.093.391-.15.963-.337,2.964-1.043,4.394-5.639a12.329,12.329,0,0,0,.359-5.15l-.043-.217a18.2,18.2,0,0,0-1.423-1.187,9,9,0,0,1-1.736-1.545c-35.318-32.864-65.772-92.684-62.191-99.154l.806-1.456.611,1.549,1.317,2.069c.1.139,12.213,17.25,26.319,36.013,3.281,3.983,6.824,8.254,10.577,12.778l5.507,6.606c2.834,3.045,5.548,6.252,8.171,9.353,13.3,15.714,24.789,29.292,44.651,13.454,4.916-3.916,6.659-7.156,6.215-11.555l-.1-.543c-3.323-12.6-19.591-29.67-38.428-49.437-27.69-29.059-59.068-61.991-65.222-96.633l-.159-.911c-.1-.459-.2-.941-.287-1.426-.015-.1-1.428-9.571,1.7-10.407,3.629-.941,10.435,5.917,40.9,49.432,25.454,36.35,72.779,103.957,85.7,95.905.378-.237,1.528-.952,1.052-4.64-3.249-13.347-19.869-38.252-35.942-62.334-15.9-23.828-30.9-46.31-34.9-59.944a3.8,3.8,0,0,1-.146-1.363c-.106-.328-.206-.654-.3-.971-.511-1.741-.3-6.078,1.319-7.2,1.4-.958,3.066.554,4.29,1.662.246.224.467.426.652.572,10.461,8.2,22.761,29.561,35.783,52.181,3.775,6.554,7.66,13.847,11.418,20.9,12.176,22.857,24.767,46.5,35.068,48.085a7.257,7.257,0,0,0,6.43-2.395c.022-.028.237-.3.5-.645.5-.632.382-3.042-.185-5.463-3.69-15.74-24.226-52.994-40.8-81.475-18.352-31.53-36.422-60.157-38.3-62.571a3.98,3.98,0,0,1-.589-1.026,13.423,13.423,0,0,0-.678-1.373c-.782-1.454-1.593-2.96-.9-4.053a2.611,2.611,0,0,1,2.4-.863c10.205.535,22.807,7.41,45.723,53.679,35.418,71.514,42.959,81.714,43.03,81.81,4.144,6.511,7.691,12.087,12.1,13.193,5.216,1.31,14.18-2.043,22.475-12.472.091-.217.293-.734.389-1.039-.024-.291-.061-.6-.1-.917-1.619-6.837-6.808-18.161-10.242-25.654-3.486-7.6-4.661-10.687-4.609-12.154-.424-1.273-1.045-4.005.854-5.313,1.137-.771,3.87,1.741,4.992,2.86,9.92,9.9,18.039,25.6,22.89,34.981l.237.456.448.524c1.06.306,5.076.385,9.864-3.97a.58.58,0,0,0,.183-.5c-3.67-18.406-16.809-47.4-30.557-67.413-.087-.124-.172-.254-.256-.389a3.907,3.907,0,0,1,1.069-5.385,3.715,3.715,0,0,1,5.224.711c1.491,1.906,2.969,3.775,4.464,5.661l.139.176c12.787,16.153,27.279,34.46,34.716,59.127a2.475,2.475,0,0,0,1.26,1.51,2.232,2.232,0,0,0,1.782.085l1.608-.617c2.023-.776,4.112-1.578,6.233-2.293a2.273,2.273,0,0,0,1.332-1.176,2.385,2.385,0,0,0,.087-1.854c-1.358-3.755-3.564-8.877-6.117-14.808l-.165-.387c-.834-1.941-1.715-3.981-2.623-6.115-10.9-25.593-24.3-86.852-25.645-95.564-.07-.393-.289-1.639.526-2.171a1.556,1.556,0,0,1,1.628.111l.2.135.091.226a25.356,25.356,0,0,0,1.965,3.347c1.106,1.723,2.619,4.085,4.544,7.476,7,12.306,16.392,33.738,28.727,65.518,2.4,6.187,4.792,12.559,6.9,18.183,3.036,8.1,6.454,17.213,8.486,21.755a2.431,2.431,0,0,0,2.547,1.43c2.8-.406,4.151-.628,6.248-.969l1.03-.167c1.067-.174,2.349-.38,4.044-.648a2.266,2.266,0,0,1,.376-.072,3.263,3.263,0,0,1,.374-.02c1.4-.183,2.438-3.077,2.788-7.756l.793-.228-.787.007c-.165-18.88-5.9-45.4-18.585-85.985m-323.1,264.341a3.819,3.819,0,0,1-2.905,2.751,4.086,4.086,0,0,1-1.376.017c-15.16-2.243-37.8-6.928-59.538-16.514a2.634,2.634,0,0,1-1.5-3.055,2.564,2.564,0,0,1,2.658-2.041c11.659.519,34.292,2.721,54.915,11.62.07.009,3.09,1.321,5.557,2.427a3.941,3.941,0,0,1,2.193,4.794M154.891,422.3a2.055,2.055,0,0,1-1.308.871,2.026,2.026,0,0,1-1.154-.12A321.281,321.281,0,0,1,54.907,360.78a2.084,2.084,0,0,1,2.236-3.438c58.744,24.874,87.795,51.875,97.557,62.33a2.061,2.061,0,0,1,.191,2.625" transform="translate(36.843 55.504)"/>
        <path id="Pfad_548" data-name="Pfad 548" class="cls-4" d="M578.489,168.388a25.266,25.266,0,0,0-23.116-14.93c-25.121.224-79.793,10.325-98.456,33.64-2.958,3.7.761,8.651,7.513,17.648C478.922,224.055,505.9,260,511.285,340.323l.3,4.509-6.617-15.205c-32.895-75.671-56.689-130.38-79.906-122.3a13.7,13.7,0,0,0-7.917,7.969,94.951,94.951,0,0,1-6.33,11.083l.05.033-.156.248,0,0c-2.955,4.542-8.625,10.672-13.639,16.09-2.612,2.823-5.081,5.489-6.65,7.4-2.184,2.66-4.8,5.266-7.569,8.023-5.187,5.172-10.553,10.52-13.784,16.894-5.379,10.622-2.786,15.156,6.865,32.019,3.286,5.742,7.376,12.885,12.176,22.118l2.327,4.474-3.577-3.555c-8.573-8.527-15.2-16.451-20.521-22.816-7.41-8.864-12.306-14.721-16.27-14.936a4.764,4.764,0,0,0-3.6,1.584c-6.33,6.08,8.593,37.643,17.509,56.5,2.995,6.33,5.578,11.8,6.832,15.1l.252.656-.619.383c-.285.141-.467.235-1.087-.487l-.013,0-.011-.026c-1.082-1.269-3.475-4.944-9.916-14.838-4.185-6.43-8.927-13.719-9.438-14.282-13.476-14.68-24.226-21.788-32.862-21.731-4.5.026-8.388,1.947-11.881,5.854-3.74,4.185,5.618,25.81,13.139,43.185,6.446,14.895,12.011,27.76,11.192,32.323l-.107.591-.63.089c-.713.063-1.143.1-12.383-20.8-5.315-9.886-11.044-20.81-11.348-21.647-9.844-26.956-15.918-32.054-18.663-32.693a2.992,2.992,0,0,0-2.886.921c-3.655,3.49,2.988,21.034,7.839,33.842,3.46,9.132,6.446,17.018,6.478,20.714l.007.654-.7.235h0c-1.828.348-11.822-13.326-20.764-36.2-10.946-28-11.789-27.777-25.773-24.091l-1.517.4c-11.061,2.9-17.737,4.653-19.458,14.427-2.76,15.66,19.817,60.142,34.757,89.575,11.542,22.74,12.937,26.013,11.494,26.953-.819.541-1.706.4-6.95-6.015-.665-.815-1.519-1.821-2.54-3.021-9.24-10.879-33.788-39.773-56.6-91.635-1.7-3.87-3.788-7.954-6.993-7.387-12.882,2.282-20.853,6.906-24.33,14.147-7.137,14.86,6.091,39.04,18.882,62.423,7.35,13.439,14.953,27.334,18.65,39.408l.393,1.284-1.313-.287c-9.977-2.182-20.486-15.258-31.235-38.86-8.708-19.119-15.284-40.136-18.43-50.962a.918.918,0,0,0-.469-.563.67.67,0,0,0-.561-.043c-5.246,2.025-8.614,4.929-10.3,8.879-3.731,8.743,1.5,21.255,6.552,33.356,5.7,13.647,11.087,26.538,3.812,33.877a2.188,2.188,0,0,1-1.745.628,2.421,2.421,0,0,1-1.778-1.021c-5.155-7.284-8.41-15.8-11.557-24.035-4.157-10.877-8.082-21.149-15.925-27.94-10.329-8.949-45.434,9.236-63.121,28.842-6.619,7.337-16.255,21.029-6.4,30.294,42.2,39.647,72.181,58.471,88.286,68.582,2.145,1.345,4.046,2.54,5.7,3.61,0,0,4.929,2.551,13.41,6.224l.63.274-.187.659a42.268,42.268,0,0,0,.163,23.537A41.694,41.694,0,0,0,192.2,578.855a40.268,40.268,0,0,0,30.974,3.188A40.87,40.87,0,0,0,250.91,553.1l.178-.667.685.093c31.18,4.153,57.679,1.386,78.774-8.219,35.972-16.383,52.357-30.861,66.815-43.634,9.179-8.11,17.852-15.771,30.365-22.929,12.954-7.41,25.823-11.663,38.269-15.777,12.663-4.188,25.758-8.514,38.556-16.151,34.6-20.643,46.155-43.419,59.535-69.795,1.856-3.657,3.738-7.367,5.713-11.127,1.013-1.93,1.969-4.161,2.982-6.524,1.306-3.053,2.658-6.209,4.4-9.423l.044-.169c5.883-17.646,33.584-109.268,1.258-180.392m-160.5,299.148a2.256,2.256,0,0,1-1.736,1.552,3.506,3.506,0,0,1-1.38-.044l-.283-.061-.176-.228q-2.194-2.836-4.385-5.646c-17.781-22.833-34.575-44.4-43.174-80.085l-.387-1.6,1.491.713c3.492,1.673,17.592,22.062,28.655,39.992,7.134,11.563,23.5,39.14,21.375,45.41m41.033-52.453a3.038,3.038,0,0,1-1.656.939,2.975,2.975,0,0,1-2.414-.635c-18.754-14.766-36.622-42.841-40.927-58.8a2.134,2.134,0,0,1,.984-2.477,2.241,2.241,0,0,1,2.747.5c3.086,3.3,6.987,9.223,11.924,16.722,7.708,11.709,17.3,26.282,29.353,39.475a3.1,3.1,0,0,1-.011,4.272" transform="translate(70.07 180.027)"/>
        <path id="Pfad_549" data-name="Pfad 549" d="M352.374,0,325.182,5.155,204.659,28,193.8,30.057,191.92,40.942l-11.809,68.276-21.8,126.02L154.393,257.9l22.594-4.281,32.356-6.133-1.634,163.068-.093,9.321,12.272,30.6L238.7,425.008l19.124-58.218L330.28,146.211l7.673-23.363-24.459,2.534-2.336.241-3.114.322,24.639-70,10.5-29.839Z" transform="translate(181.124 0)"/>
        <path id="Pfad_550" data-name="Pfad 550" class="cls-4" d="M214.882,216.965l-51.458,9.753c11.626-67.215,22.6-130.654,33.61-194.3L317.556,9.578c-15.025,42.683-28.929,82.188-43.5,123.578,10.853-1.124,18.682-1.934,30.483-3.158C275,219.927,246.421,306.931,212.959,408.8c.73-72.768,1.306-130.328,1.923-191.832" transform="translate(191.719 11.236)"/>
        <path id="Pfad_551" data-name="Pfad 551" class="cls-5" d="M364.884,479.005c-3.705,2.047-74.634,57.519-54.47,52.042,1.984-1.273,4.385-.863,6.448-2.071.8,4.542,2.1,1.293,5.313.915.582,3.525-.548,6.9-1.278,10.381.043,1.478,1.428,2.825-.076,4.092-.934,1.482-2.942,3.683-1.769,5.492-11.742,17.322-33.7,21.034-48.409,35.44-4.974,4.772-16.516,9.16-15.521,16.918,6.406,18.078,16.179,36.459,15.329,56.006-.906,9.877-7.332,21.195-16.449,21.39-13.252.285-16.948-7.111-26.154-9.94-19.378-6.835-41.609-8.723-61.139-4.266-24.872,19.519-50.4,38.26-74.265,58.762-11.574,9.405-22.216,19.915-33.927,29.059-7.46,5.3-22.255,19.858-24.511,7.339C29.579,736,65.74,718.92,83.782,699.764c7.991-5.841,15.116-12.535,22.457-19.1,1.347-.417,6.489-4.633,4.049-5.859-31.328,4.559-63,15.879-94.945,14.293-13.056-2.525-6.454-17.272-.961-24.717,12.935-21.675,37.23-33.742,57.221-48.218,58.192-38.94,116.567-77.792,176.935-111.841,25.15-13.791,50.473-27.764,75.59-41.742,19.121-20.069,32.758-45.193,52.036-65.481,25.437-24.785,25.465,13.858,20.647,31.343-.587,1.356-.876,2.795.782,3.431.039,2.267-.522,3.953,1.184,5.694-2.656,3-1.725,6.774-3.87,10.2a188.491,188.491,0,0,0-11.913,46.738c8.669.567,17.792-6.117,26.267-9.633,18-4.025,18.246-18.969,24.735-33.764,7.463-19.491,15.853-38.708,24.311-57.94,59.751-140.943,79.9-95.688,94.692,22.9,6.672-2.764,8.838-12.191,13.578-17.661,6.252-9.249,5.489-7.432-1.619-14.125C539.4,351.5,579.6,304.426,608.8,287.819c61.122-16.051,8.686,62.271-3.277,84.559,11.04,1.491,17.355,2.167,27.477-3.118,11.15-4.972,25.093-7.354,34.179-15.4,15.142-28.733,41.364-59.627,33.084-93.08-2.625-12.646,11-16.716,16.831-6.2,5.739,18.939,13.593,36.672,22.462,54.2,4.185,15.707,8.677,9.738,20.278,4.787,10.5-5.489,21.46-10.622,31.293-17.211-21.3-27.132-10.742-67.5-13.526-101-1.517-13.739,16.377-12.517,17.8-.691,7.369,26.039,15.508,56.9,30.039,78.318,8.334-.674,22.761-4.229,24.746,4.933,3.388,2.649-.774,5.076.174,8.219.769,7.026-8.449,10.29-13.454,13.437-2.371,10.186,7.993,23.337,10.855,33.992,8.16,24.424,25.172,47.718,28.672,73.026-8.212,29.037-20.447,1.86-25.421-11.961-12.293-27.5-21.59-58.386-35.9-83.807-19.058,9.588-38.113,19.66-56.43,30.672-7.767,3.814,15.866,33.975,19.306,41.237,13.928,12.244,5.635,37.928-13.654,22.987-53.833-23.92-22.418-7.2-60.316,19.671-29.32,22.24-57.48,48.865-91.824,63.284-27.234-3.158-3.04-43.482,4.611-57.562-12.906,8.188-25.83,17.044-38.425,25.965-5.092,4.427-15.251,5.987-8.267,13.439,4.312,4.088,12.565,1.6,17.442,5.342,19.128,7.471,9.071,38.556-10.866,34.844-9.371-2.825-15.779-10.755-21.451-18.2-16.505-5.748-34.762,4.42-51.575,6.454-18.163,4.3-36.322,9.342-54.576,13.3-5.9,3.114-18.861,1.287-19.793,9.036-8.267,22.073.024,46.836-11.8,65.827-18.522,29.748-9.7,36.389-42.943,58.468-9.492,9.766-18.822-2.358-25.608,2.992-17.313,13.954-22.64-3.344-17.22-18.824,2.473-8.412,16.023-8.992,14.334-18.941-.339-21.434,2.167-42.824,5.748-64.019.215-2.275-3.655-1.052-5.009-1.189-7.221-.552-10.772-6.741-8.323-13.565,6.348-28.051,23.579-8.293,26.41-53.031m169.068-52.073c-3.842-18.987-7.048-90.285-21.966-96.916-31.078,36.654-44.4,88.523-63.41,132.735,2.653.361,3.39-.887,4.057,2.019,6.574-2.834,13.154-6.065,19.567-8.669,20.6-9.677,41.618-18.548,61.752-29.17m-371.5,210.714c13.376-14.4,30.835-26.456,44.417-42.53,11.9-12.167,9.221-14.673,4.874-29.437-4.083-1.667-2.829-11.166-8.3-5.309-23.322,7.193-44.249,26.4-66.339,38.8-26.7,18.272-56.76,35.533-79.783,56.749,25.932-2.017,52.564-7.576,78.14-13.565,9.273-1.093,18.341-.628,26.99-4.707m82.056-73.572c22.023-18.515,47.955-35.87,57.775-64.2-9.21,6.982-77.359,37.717-68.767,47.014,3.042,3.462,6.091,27.112,10.992,17.19m147.411,7.836c5.548-6.565,6.576-17.65,9.14-25.813,2.438-4.722,3.438-10.112,5.013-14.871,2.8-4.031-.6-3.2-3.581-3.088-29.361,8.512-29.516,2.469-32.028,33.992-1.139,11.077-2.475,22.692-1.9,33.66,6.669-1.958,1.491-12.311,5.863-17.322,2.195-4.448,7.836-10.6,12.563-8.267,1.2,1.6,3.7.478,4.931,1.708M701.525,396.3c-12.2-.741-25.678.75-38.028,2.53-11.752,15.288-21.86,34.31-32.3,50.684A495.574,495.574,0,0,0,701.525,396.3m-84.846-88.916c-16.5,4.8-60.867,54.948-29.772,58.9,8.6-18.387,30.354-40.357,29.772-58.9M481.914,479.514c17.487-.589,35.8-10.807,53.016-6.374,3.727-2.5-1.865-13.934,2.719-20.049-6.708-1.054-17.426,7.919-25.135,10.353-9.757,5.322-22.525,9.6-30.6,16.07M713.132,304.98c-.111,7.413-27.129,45.964-9.7,35.327,8.686-5.542,30.157-6.661,19.308-19.849-2.632-3.873-4.557-16.785-9.61-15.477M744.94,365.8c-3.957-2.756-4.637-14.008-9.581-13.378-9.153,4.366-18.133,9.158-27.266,13.434-14.94,4.944,22.283,5.194,27.256,7.4,9.223-.635,17.709,8.01,9.592-7.454M237.079,640.248c3.284-3.3-.974-6.428-1.53-10.081-2.03-3.857-2.369-14.716-8.725-11.691-8.017,7.63-21.236,13.752-25.791,23.413,11.726-3.77,23.855-.576,36.046-1.641M747.061,382.883c-5.657-2.7-11.307-4.274-17.2-6.241-4.622.945-.089,7.082,3.036,6.917,2.682-2.08,12.25,3.2,14.169-.676m53.109-111.61c1.982-2.136-1.363-5.237-2.677-6.965-1.045,2.223.356,5.915,2.677,6.965M201.948,644.72c-1.4-1.223-1.449-1.223-3.184.039-.269,2.475,2.912,2.227,3.184-.039m82.012-98.4c-1.852.7-3.6.8-4.016,2.934,1.941-.013,3.364-.565,4.016-2.934M589.115,399.459c1.41.715,2.447.252,3.586-.745-1.187-1.169-2.586-.613-3.586.745M802.281,273.409c-.874-1.734-.874-1.734-2.273-1.373.135,1.165,1.26,3.316,2.273,1.373M203.452,645.361c-.478-.128-1.074.341-.932.721.317.5,1.015-.178.932-.721M536.838,478.118c-.339.137-.837-.028-.784.632.315.624,1.147.106.784-.632" transform="translate(9.096 217.519)"/>
        <path id="Pfad_552" data-name="Pfad 552" d="M47.639,791.458a20.976,20.976,0,0,1-7.5-1.389c-3.373-1.278-11.45-5.537-13.6-17.431-4.916-27.271,18.222-45.647,36.813-60.413l.183-.143C50.527,714.29,37.225,715.677,23.606,715l-1.191-.059-1.173-.226C11.993,712.923,4.9,707.3,1.768,699.285c-5.487-14.069,3.14-28.783,7.673-35.118,11.885-19.476,30.722-31.956,47.364-42.978,4.944-3.275,9.612-6.365,14.025-9.562l.511-.354c53.948-36.1,115.09-77.018,178.028-112.514,25.819-14.16,50.436-27.753,73.374-40.512,8.082-8.777,15.255-18.676,22.822-29.118,8.4-11.589,17.09-23.574,27.5-34.527l.456-.463c16.755-16.325,29.6-14.238,37.417-9.621,17.828,10.535,14.806,39.054,12.5,51.521l.043,2.5,7.156,7.3c6.513-16.425,13.569-32.617,21.323-50.252,31.187-73.541,52.972-100.845,77.677-97.409,13.941,1.943,23.639,13.065,31.039,32.906,11.944-20.634,31.3-38.788,48.9-48.8l1.915-1.091,2.132-.558c20.74-5.444,35.587-2.519,44.132,8.7,12.532,16.444,4.129,40.822-10.95,69.245l1.373-.469c5.746-1.967,11.227-3.842,14.971-6.276,3-5.461,6.276-10.924,9.462-16.238,12.989-21.655,25.254-42.113,20.41-61.685l-.141-.626c-2.845-13.715,3.588-26.421,15.64-30.9S734.2,243.418,740.9,255.5l.871,1.571.521,1.717c4.509,14.89,10.84,30.352,19.836,48.433q3.142-1.633,6.319-3.244c3.025-1.541,5.985-3.053,8.862-4.577-8.719-20.551-7.971-43.687-7.3-64.636.328-10.236.643-19.906-.078-28.755-1.467-14.493,7.713-26.573,21.449-28.157a27.1,27.1,0,0,1,29.581,22.3l1.1,3.881c5.718,20.31,12.089,42.935,21.369,60.22,9.988-.563,25.263.635,30.915,14.643,2.486,3.825,4.383,9.529,1.995,17.009.159,10.485-6.187,17.211-12.068,21.425.887,2.058,1.932,4.238,2.725,5.889a90.884,90.884,0,0,1,5.954,14.5c2.862,8.443,7.021,17.011,11.422,26.071,7.539,15.527,15.334,31.582,17.824,49.582l.48,3.49-.958,3.394c-4.6,16.264-12.774,24.717-24.289,25.117-17.476.617-26.8-18.443-32.943-35.368-4.7-10.575-8.979-21.594-13.119-32.262-4.781-12.322-9.379-24.174-14.5-35.192-11.266,5.857-21.268,11.3-30.452,16.585,2.823,4.844,6.587,10.553,8.649,13.673,2.475,3.755,4.264,6.482,5.583,8.734,12.026,12.73,13.786,32.732,3.455,45.251-7.988,9.675-23.04,14.017-39.177,2.645-5.153-2.288-12.32-5.442-17.518-7.445-3.705,6.578-10.3,16.038-24.328,26.036-6.685,5.079-13.226,10.32-20.149,15.868-22.977,18.413-46.733,37.452-75.13,49.369l-4.066,1.71-2.906-.337c-6.369,15.729-21.786,24.717-38.123,21.686l-1.78-.435c-12.017-3.625-20.391-12.157-26.117-19.172-5.67-.348-12.858,1.612-20.38,3.681a141.574,141.574,0,0,1-18.65,4.214c-6.884,1.639-13.928,3.423-20.747,5.148-10.3,2.61-20.934,5.3-31.582,7.647a49.417,49.417,0,0,1-10.333,2.579c-.046.006-.091.013-.139.022-1.691,6.517-1.945,13.9-2.214,21.636-.476,13.687-1.015,29.194-9.89,43.448a139.78,139.78,0,0,0-10.711,21.01c-6.548,15.234-11.839,25.493-35.915,41.716-11.366,10.435-23.689,7.663-29.783,5.981-15.429,10.188-26.78,4.611-31.158,1.523-12.689-8.96-13.41-27.332-8.488-41.7,2.769-8.818,9.288-13.508,13.48-16.37a338.089,338.089,0,0,1,3.6-48.6c-8.925,13.011-21.342,19.815-32.306,25.817-6.874,3.766-13.365,7.321-18.076,11.937a57.714,57.714,0,0,1-7.843,6.048c-.261.176-.545.367-.839.569q.851,2.184,1.747,4.446c5.9,14.938,12.593,31.873,11.781,50.569l-.054.806c-1.6,17.474-13.658,36.268-32.847,36.678-13.413.345-21.449-4.781-26.773-8.134A21.974,21.974,0,0,0,232,694.845l-.654-.215c-15.779-5.565-33.164-7.139-48.292-4.44q-9.577,7.475-19.219,14.858c-17.148,13.2-34.883,26.843-51.33,40.972l-.356.3c-4.979,4.042-9.773,8.3-14.845,12.811-6.165,5.476-12.535,11.137-19.339,16.449l-.6.45c-1.058.752-2.286,1.732-3.612,2.779-6.98,5.507-16.038,12.65-26.115,12.652m83.475-119.712a17.814,17.814,0,0,1,5.687,11.648q3.269-2.52,6.515-5.018,7.263-5.587,14.51-11.2c-1.715.165-3.392.291-5.022.415-1.875.141-3.662.278-5.379.461-5.257,1.228-10.711,2.473-16.312,3.69m118.49-5.822c1.893,1.017,3.544,2.058,5.026,2.99,2.847,1.8,4.164,2.625,6.126,2.877a14.361,14.361,0,0,0,2-5.67,46.818,46.818,0,0,0-.85-10.005A22.015,22.015,0,0,1,258.1,661.2l-4.338,4.357Zm-58.342-15.086c-1.778,1.662-3.5,3.327-5.142,5q1.607-.153,3.234-.267l1.808-3.833ZM364.3,639.5a41.47,41.47,0,0,1,8.349,1.643c.209.059.437.124.667.187l1.019-.682c18.115-12.031,20.1-16.657,24.906-27.834,1-2.332,2.093-4.868,3.39-7.663l-.567.672-4.144-4.14c-1.4,10.231-6.609,16.727-15.529,19.341l-10.359,3.036A24.865,24.865,0,0,1,364.3,639.5M155.1,622.557c-6.989,4.77-14.249,9.51-21.3,14.106q3.514-.8,6.926-1.6l.924-.217.943-.111c2.684-.315,5.213-.506,7.66-.693,4.618-.352,8.469-.643,11.687-1.6,5.778-5.907,11.994-11.372,18.031-16.685,8.432-7.413,16.4-14.417,23.144-22.405l.826-.908c.815-.834,1.476-1.538,2.012-2.132-8.749,4.414-17.609,10.477-26.821,16.781-7.728,5.289-15.712,10.753-24.031,15.473m82.871-12.352a19.712,19.712,0,0,1,8.247,1.8q.626.287,1.217.606c-.887-9.173,3.34-15.936,8.193-20.777a18.547,18.547,0,0,1-5.911.5,17.628,17.628,0,0,1-8.425-2.851c.161,7.232-2.243,13.676-8.712,21.442a20.719,20.719,0,0,1,5.392-.724m56.993-49.774,1.154,3.042c1.7-.941,3.349-1.869,4.924-2.805l-5.242-1.015c-.28.263-.556.519-.837.778m-71.207-7.68c.452.23.882.48,1.3.739q.026-.8.113-1.593l-1.408.854m142.452-13.819a17.752,17.752,0,0,1,2.453,1.147q.489-.877,1.043-1.725c6.141-9.366,15.14-11.607,25.563-14.206,3.336-.83,7.117-1.773,11.637-3.084l1.995-.578,2.078-.076c.228-.009.461-.026.689-.041a22.777,22.777,0,0,1,11.555,1.865c4.672-11.644,17.52-14.267,23.555-15.3l-5.765.193,16.2-12.991-7.363,3.175-1.347-5.868a38.815,38.815,0,0,1-24.778,18.539c-1.571.711-3.329,1.608-5.17,2.549-7.469,3.816-16.785,8.547-27.562,7.863l-6.921-.454c-3.625,7.347-8.588,12.156-14.78,16.477a15.1,15.1,0,0,0-3.084,2.519m217.718-40.042a20.854,20.854,0,0,0,5.118,4.118,5.535,5.535,0,0,0,1.01-2.575l-1.591-.619-.622-.465c-.517-.067-1.158-.139-1.682-.2-.68-.074-1.43-.159-2.234-.263M336,489.387l-3.457,9.955c10.818-9.042,29.294-23.761,33.3-25.976l17.944-9.918c1.386-4.307,2.914-8.575,4.574-12.774l.761-1.745c.02-.093.037-.187.056-.278.159-.763.352-1.7.637-2.764a19.248,19.248,0,0,1,.07-13.556,53.994,53.994,0,0,0,1.3-7.528c-6.343,7.491-12.226,15.607-18.365,24.078-8.391,11.574-17.068,23.544-27.408,34.4l-1.765,1.852-2.236,1.243q-2.693,1.5-5.413,3.012M586.4,498.282c.076.056.15.113.224.165ZM419.253,464.077c-1.719,4.431-3.262,8.94-4.614,13.48l.046-.009c3.977-.893,4.85-1.421,8.76-12.843,1.128-3.294,2.4-7.017,4.07-10.877q1.363-3.556,2.76-7.084L422,456.088a30.1,30.1,0,0,1-2.749,7.989m139.109-17.111,18.633,2.921-4.3,5.739c.617-.365,1.2-.693,1.723-.993.721-.409,1.815-1.026,2.164-1.289l1.178-.919c14.712-10.418,27.512-19.067,39.136-26.443l40.27-25.545q1.037-1.4,2.093-2.773l4.164-5.42,6.771-.978a253.835,253.835,0,0,1,30.787-2.866,16.634,16.634,0,0,1-4.02-9.418,17.477,17.477,0,0,1,3.505-12.532,18.13,18.13,0,0,1-4.87-3.262l-.141-.13c-1.517,2.623-2.958,5.2-4.292,7.734l-1.432,2.714-2.3,2.036c-8.647,7.658-19.119,11.242-28.357,14.4-3.523,1.208-6.863,2.349-9.716,3.592-13.052,6.669-22.927,6.365-32.838,5.148l10.012,9.881-13.671,11.92c-6.5,5.674-14.812,6.832-22.223,3.088l-4.086-2.06c-.228.409-.448.811-.652,1.18-3.053,5.574-7.669,14-17.357,18.015l-6.8,2.819.306,1.5Zm41.5-37.2-9.886,10.016a15,15,0,0,0,11.618,4.168,14.069,14.069,0,0,0,10.181-5.442Zm-3.223-7.871,3.125,3.579,4.266-8.456-7.68-1.041a19.273,19.273,0,0,1,.38,4.583c-.017.454-.046.9-.091,1.334m188.968.8h0ZM511.342,352.438h0m238.313-7.287c.437.107.874.228,1.3.367.152-.369.315-.734.491-1.091-.443-.093-.893-.2-1.343-.33q-.218.538-.45,1.054M816.555,299l3.329,4.24,7.369-3.71-1.134.093-3.21-4.724a17.952,17.952,0,0,1-6.354,4.1M811.4,275.657l.072.033-.046-.091Z" transform="translate(0.001 208.43)"/>
        <path id="Pfad_553" data-name="Pfad 553" class="cls-6" d="M364.884,479.005c-3.705,2.047-74.634,57.519-54.47,52.042,1.984-1.273,4.385-.863,6.448-2.071.8,4.542,2.1,1.293,5.313.915.582,3.525-.548,6.9-1.278,10.381.043,1.478,1.428,2.825-.076,4.092-.934,1.482-2.942,3.683-1.769,5.492-11.742,17.322-33.7,21.034-48.409,35.44-4.974,4.772-16.516,9.16-15.521,16.918,6.406,18.078,16.179,36.459,15.329,56.006-.906,9.877-4.485,17.263-16.449,21.39-10.292,3.553-16.948-7.111-26.154-9.94-19.378-6.835-41.609-8.723-61.139-4.266-24.872,19.519-50.4,38.26-74.265,58.762-11.574,9.405-22.216,19.915-33.927,29.059-7.46,5.3-16.179,16.951-24.511,7.339,2.784-29.2,31.732-41.644,49.774-60.8,7.991-5.841,15.116-12.535,22.457-19.1,1.347-.417,6.489-4.633,4.049-5.859-31.328,4.559-63,15.879-94.945,14.293-13.056-2.525-6.454-17.272-.961-24.717,12.935-21.675,37.23-33.742,57.221-48.218,58.192-38.94,116.567-77.792,176.935-111.841,25.15-13.791,50.473-27.764,75.59-41.742,19.121-20.069,32.758-45.193,52.036-65.481,25.437-24.785,25.465,13.858,20.647,31.343-.587,1.356-.876,2.795.782,3.431.039,2.267-.522,3.953,1.184,5.694-2.656,3-1.725,6.774-3.87,10.2a188.491,188.491,0,0,0-11.913,46.738c8.669.567,17.792-6.117,26.267-9.633,18-4.025,18.246-18.969,24.735-33.764,7.463-19.491,15.853-38.708,24.311-57.94,59.751-140.943,79.9-95.688,94.692,22.9,6.672-2.764,8.838-12.191,13.578-17.661,6.252-9.249,5.489-7.432-1.619-14.125C539.4,351.5,579.6,304.426,608.8,287.819c61.122-16.051,8.686,62.271-3.277,84.559,11.04,1.491,17.355,2.167,27.477-3.118,11.15-4.972,25.093-7.354,34.179-15.4,15.142-28.733,41.364-59.627,33.084-93.08-2.625-12.646,11-16.716,16.831-6.2,5.739,18.939,13.593,36.672,22.462,54.2,4.185,15.707,8.677,9.738,20.278,4.787,10.5-5.489,21.46-10.622,31.293-17.211-21.3-27.132-10.742-67.5-13.526-101-1.517-13.739,16.377-12.517,17.8-.691,7.369,26.039,15.508,56.9,30.039,78.318,8.334-.674,22.761-4.229,24.746,4.933,3.388,2.649-.774,5.076.174,8.219.769,7.026-8.449,10.29-13.454,13.437-2.371,10.186,7.993,23.337,10.855,33.992,8.16,24.424,25.172,47.718,28.672,73.026-8.212,29.037-20.447,1.86-25.421-11.961-12.293-27.5-21.59-58.386-35.9-83.807-19.058,9.588-38.113,19.66-56.43,30.672-7.767,3.814,15.866,33.975,19.306,41.237,13.928,12.244,5.635,37.928-13.654,22.987-53.833-23.92-22.418-7.2-60.316,19.671-29.32,22.24-57.48,48.865-91.824,63.284-27.234-3.158-3.04-43.482,4.611-57.562-12.906,8.188-25.83,17.044-38.425,25.965-5.092,4.427-15.251,5.987-8.267,13.439,4.312,4.088,12.565,1.6,17.442,5.342,19.128,7.471,9.071,38.556-10.866,34.844-9.371-2.825-15.779-10.755-21.451-18.2-16.505-5.748-34.762,4.42-51.575,6.454-18.163,4.3-36.322,9.342-54.576,13.3-5.9,3.114-18.861,1.287-19.793,9.036-8.267,22.073.761,47.316-11.8,65.827-21.045,31.006-9.7,36.389-42.943,58.468-9.492,9.766-18.822-2.358-25.608,2.992-17.313,13.954-22.64-3.344-17.22-18.824,2.473-8.412,16.023-8.992,14.334-18.941-.339-21.434,2.167-42.824,5.748-64.019.215-2.275-3.655-1.052-5.009-1.189-7.221-.552-10.772-6.741-8.323-13.565,6.348-28.051,23.579-8.293,26.41-53.031m169.068-52.073c-3.842-18.987-7.048-90.285-21.966-96.916-31.078,36.654-44.4,88.523-63.41,132.735,2.653.361,3.39-.887,4.057,2.019,6.574-2.834,13.154-6.065,19.567-8.669,20.6-9.677,41.618-18.548,61.752-29.17m-371.5,210.714c13.376-14.4,30.835-26.456,44.417-42.53,11.9-12.167,9.221-14.673,4.874-29.437-4.083-1.667-2.829-11.166-8.3-5.309-23.322,7.193-44.249,26.4-66.339,38.8-26.7,18.272-56.76,35.533-79.783,56.749,25.932-2.017,52.564-7.576,78.14-13.565,9.273-1.093,18.341-.628,26.99-4.707m82.056-73.572c22.023-18.515,47.955-35.87,57.775-64.2-9.21,6.982-77.359,37.717-68.767,47.014,3.042,3.462,6.091,27.112,10.992,17.19m147.411,7.836c5.548-6.565,6.576-17.65,9.14-25.813,2.438-4.722,3.438-10.112,5.013-14.871,2.8-4.031-.6-3.2-3.581-3.088-29.361,8.512-29.516,2.469-32.028,33.992-1.139,11.077-2.475,22.692-1.9,33.66,6.669-1.958,1.491-12.311,5.863-17.322,2.195-4.448,7.836-10.6,12.563-8.267,1.2,1.6,3.7.478,4.931,1.708M701.525,396.3c-12.2-.741-25.678.75-38.028,2.53-11.752,15.288-21.86,34.31-32.3,50.684A495.574,495.574,0,0,0,701.525,396.3m-84.846-88.916c-16.5,4.8-60.867,54.948-29.772,58.9,8.6-18.387,30.354-40.357,29.772-58.9M481.914,479.514c17.487-.589,35.8-10.807,53.016-6.374,3.727-2.5-1.865-13.934,2.719-20.049-6.708-1.054-17.426,7.919-25.135,10.353-9.757,5.322-22.525,9.6-30.6,16.07M713.132,304.98c-.111,7.413-27.129,45.964-9.7,35.327,8.686-5.542,30.157-6.661,19.308-19.849-2.632-3.873-4.557-16.785-9.61-15.477M744.94,365.8c-3.957-2.756-4.637-14.008-9.581-13.378-9.153,4.366-18.133,9.158-27.266,13.434-14.94,4.944,22.283,5.194,27.256,7.4,9.223-.635,17.709,8.01,9.592-7.454M237.079,640.248c3.284-3.3-.974-6.428-1.53-10.081-2.03-3.857-2.369-14.716-8.725-11.691-8.017,7.63-21.236,13.752-25.791,23.413,11.726-3.77,23.855-.576,36.046-1.641M747.061,382.883c-5.657-2.7-11.307-4.274-17.2-6.241-4.622.945-.089,7.082,3.036,6.917,2.682-2.08,12.25,3.2,14.169-.676m53.109-111.61c1.982-2.136-1.363-5.237-2.677-6.965-1.045,2.223.356,5.915,2.677,6.965M201.948,644.72c-1.4-1.223-1.449-1.223-3.184.039-.269,2.475,2.912,2.227,3.184-.039m82.012-98.4c-1.852.7-3.6.8-4.016,2.934,1.941-.013,3.364-.565,4.016-2.934M589.115,399.459c1.41.715,2.447.252,3.586-.745-1.187-1.169-2.586-.613-3.586.745M802.281,273.409c-.874-1.734-.874-1.734-2.273-1.373.135,1.165,1.26,3.316,2.273,1.373M203.452,645.361c-.478-.128-1.074.341-.932.721.317.5,1.015-.178.932-.721M536.838,478.118c-.339.137-.837-.028-.784.632.315.624,1.147.106.784-.632" transform="translate(9.096 217.519)"/>
        <path id="Pfad_554" data-name="Pfad 554" class="cls-7" d="M364.884,479.005c-3.705,2.047-74.634,57.519-54.47,52.042,1.984-1.273,4.385-.863,6.448-2.071.8,4.542,2.1,1.293,5.313.915.582,3.525-.548,6.9-1.278,10.381.043,1.478,1.428,2.825-.076,4.092-.934,1.482-2.942,3.683-1.769,5.492-11.742,17.322-33.7,21.034-48.409,35.44-4.974,4.772-16.516,9.16-15.521,16.918,6.406,18.078,16.179,36.459,15.329,56.006-.906,9.877-4.485,17.263-16.449,21.39-10.292,3.553-16.948-7.111-26.154-9.94-19.378-6.835-41.609-8.723-61.139-4.266-24.872,19.519-50.4,38.26-74.265,58.762-11.574,9.405-22.216,19.915-33.927,29.059-7.46,5.3-16.179,16.951-24.511,7.339,2.784-29.2,31.732-41.644,49.774-60.8,7.991-5.841,15.116-12.535,22.457-19.1,1.347-.417,6.489-4.633,4.049-5.859-31.328,4.559-63,15.879-94.945,14.293-13.056-2.525-6.454-17.272-.961-24.717,12.935-21.675,37.23-33.742,57.221-48.218,58.192-38.94,116.567-77.792,176.935-111.841,25.15-13.791,50.473-27.764,75.59-41.742,19.121-20.069,32.758-45.193,52.036-65.481,25.437-24.785,25.465,13.858,20.647,31.343-.587,1.356-.876,2.795.782,3.431.039,2.267-.522,3.953,1.184,5.694-2.656,3-1.725,6.774-3.87,10.2a188.491,188.491,0,0,0-11.913,46.738c8.669.567,17.792-6.117,26.267-9.633,18-4.025,18.246-18.969,24.735-33.764,7.463-19.491,15.853-38.708,24.311-57.94,59.751-140.943,79.9-95.688,94.692,22.9,6.672-2.764,8.838-12.191,13.578-17.661,6.252-9.249,5.489-7.432-1.619-14.125C539.4,351.5,579.6,304.426,608.8,287.819c61.122-16.051,8.686,62.271-3.277,84.559,11.04,1.491,17.355,2.167,27.477-3.118,11.15-4.972,25.093-7.354,34.179-15.4,15.142-28.733,41.364-59.627,33.084-93.08-2.625-12.646,11-16.716,16.831-6.2,5.739,18.939,13.593,36.672,22.462,54.2,4.185,15.707,8.677,9.738,20.278,4.787,10.5-5.489,21.46-10.622,31.293-17.211-21.3-27.132-10.742-67.5-13.526-101-1.517-13.739,16.377-12.517,17.8-.691,7.369,26.039,15.508,56.9,30.039,78.318,8.334-.674,22.761-4.229,24.746,4.933,3.388,2.649-.774,5.076.174,8.219.769,7.026-8.449,10.29-13.454,13.437-2.371,10.186,7.993,23.337,10.855,33.992,8.16,24.424,25.172,47.718,28.672,73.026-8.212,29.037-20.447,1.86-25.421-11.961-12.293-27.5-21.59-58.386-35.9-83.807-19.058,9.588-38.113,19.66-56.43,30.672-7.767,3.814,15.866,33.975,19.306,41.237,13.928,12.244,5.635,37.928-13.654,22.987-53.833-23.92-22.418-7.2-60.316,19.671-29.32,22.24-57.48,48.865-91.824,63.284-27.234-3.158-3.04-43.482,4.611-57.562-12.906,8.188-25.83,17.044-38.425,25.965-5.092,4.427-15.251,5.987-8.267,13.439,4.312,4.088,12.565,1.6,17.442,5.342,19.128,7.471,9.071,38.556-10.866,34.844-9.371-2.825-15.779-10.755-21.451-18.2-16.505-5.748-34.762,4.42-51.575,6.454-18.163,4.3-36.322,9.342-54.576,13.3-5.9,3.114-18.861,1.287-19.793,9.036-8.267,22.073.761,47.316-11.8,65.827-21.045,31.006-9.7,36.389-42.943,58.468-9.492,9.766-18.822-2.358-25.608,2.992-17.313,13.954-22.64-3.344-17.22-18.824,2.473-8.412,16.023-8.992,14.334-18.941-.339-21.434,2.167-42.824,5.748-64.019.215-2.275-3.655-1.052-5.009-1.189-7.221-.552-10.772-6.741-8.323-13.565C344.821,503.985,362.052,523.744,364.884,479.005Zm169.068-52.073c-3.842-18.987-7.048-90.285-21.966-96.916-31.078,36.654-44.4,88.523-63.41,132.735,2.653.361,3.39-.887,4.057,2.019,6.574-2.834,13.154-6.065,19.567-8.669C492.8,446.425,513.818,437.555,533.952,426.932Zm-371.5,210.714c13.376-14.4,30.835-26.456,44.417-42.53,11.9-12.167,9.221-14.673,4.874-29.437-4.083-1.667-2.829-11.166-8.3-5.309-23.322,7.193-44.249,26.4-66.339,38.8-26.7,18.272-56.76,35.533-79.783,56.749,25.932-2.017,52.564-7.576,78.14-13.565C144.738,641.26,153.807,641.726,162.456,637.646Zm82.056-73.572c22.023-18.515,47.955-35.87,57.775-64.2-9.21,6.982-77.359,37.717-68.767,47.014C236.562,550.347,239.611,574,244.511,564.075Zm147.411,7.836c5.548-6.565,6.576-17.65,9.14-25.813,2.438-4.722,3.438-10.112,5.013-14.871,2.8-4.031-.6-3.2-3.581-3.088-29.361,8.512-29.516,2.469-32.028,33.992-1.139,11.077-2.475,22.692-1.9,33.66,6.669-1.958,1.491-12.311,5.863-17.322,2.195-4.448,7.836-10.6,12.563-8.267C388.193,571.8,390.688,570.681,391.922,571.911ZM701.525,396.3c-12.2-.741-25.678.75-38.028,2.53-11.752,15.288-21.86,34.31-32.3,50.684A495.574,495.574,0,0,0,701.525,396.3Zm-84.846-88.916c-16.5,4.8-60.867,54.948-29.772,58.9C595.5,347.9,617.262,325.929,616.679,307.386ZM481.914,479.514c17.487-.589,35.8-10.807,53.016-6.374,3.727-2.5-1.865-13.934,2.719-20.049-6.708-1.054-17.426,7.919-25.135,10.353C502.757,468.765,489.989,473.04,481.914,479.514ZM713.132,304.98c-.111,7.413-27.129,45.964-9.7,35.327,8.686-5.542,30.157-6.661,19.308-19.849C720.11,316.585,718.184,303.672,713.132,304.98ZM744.94,365.8c-3.957-2.756-4.637-14.008-9.581-13.378-9.153,4.366-18.133,9.158-27.266,13.434-14.94,4.944,22.283,5.194,27.256,7.4C744.571,372.623,753.057,381.268,744.94,365.8ZM237.079,640.248c3.284-3.3-.974-6.428-1.53-10.081-2.03-3.857-2.369-14.716-8.725-11.691-8.017,7.63-21.236,13.752-25.791,23.413C212.76,638.118,224.888,641.313,237.079,640.248ZM747.061,382.883c-5.657-2.7-11.307-4.274-17.2-6.241-4.622.945-.089,7.082,3.036,6.917C735.574,381.479,745.142,386.762,747.061,382.883Zm53.109-111.61c1.982-2.136-1.363-5.237-2.677-6.965C796.448,266.531,797.85,270.223,800.17,271.272ZM201.948,644.72c-1.4-1.223-1.449-1.223-3.184.039C198.5,647.234,201.677,646.987,201.948,644.72Zm82.012-98.4c-1.852.7-3.6.8-4.016,2.934C281.885,549.243,283.309,548.691,283.961,546.322ZM589.115,399.459c1.41.715,2.447.252,3.586-.745C591.514,397.545,590.115,398.1,589.115,399.459ZM802.281,273.409c-.874-1.734-.874-1.734-2.273-1.373C800.142,273.2,801.268,275.351,802.281,273.409ZM203.452,645.361c-.478-.128-1.074.341-.932.721C202.837,646.58,203.535,645.9,203.452,645.361ZM536.838,478.118c-.339.137-.837-.028-.784.632C536.369,479.375,537.2,478.857,536.838,478.118Z" transform="translate(9.096 217.519)"/>
      </g>
    </g>
  </g>
</svg>
