<svg xmlns="http://www.w3.org/2000/svg" xmlns:xlink="http://www.w3.org/1999/xlink" width="100" height="100" viewBox="0 0 100 100">
  <defs>
    <clipPath id="clip-path">
      <rect id="Rechteck_108" data-name="Rechteck 108" width="95" height="95" transform="translate(-0.112 -0.896)" fill="#fff"/>
    </clipPath>
    <clipPath id="clip-KJ_-_opensea">
      <rect width="100" height="100"/>
    </clipPath>
  </defs>
  <g id="KJ_-_opensea" data-name="KJ - opensea" clip-path="url(#clip-KJ_-_opensea)">
    <g id="Ellipse_Fb" data-name="Ellipse Fb" fill="none" stroke="#fff" stroke-width="4">
      <circle cx="50" cy="50" r="50" stroke="none"/>
      <circle cx="50" cy="50" r="48" fill="none"/>
    </g>
    <g id="Gruppe_103" data-name="Gruppe 103" transform="translate(3.112 0.896)" clip-path="url(#clip-path)">
      <path id="Pfad_582" data-name="Pfad 582" d="M16.619,44.32l.209-.342,12.918-20.44a.442.442,0,0,1,.774.06c2.155,4.892,4.021,10.978,3.148,14.765a22.843,22.843,0,0,1-2.542,5.615c-.149.281-.308.562-.487.834a.437.437,0,0,1-.367.191H17a.444.444,0,0,1-.377-.683m57.56,7.031a.456.456,0,0,1-.268.422c-1,.432-4.428,2.029-5.848,4.028-3.634,5.112-6.4,12.425-12.61,12.425H29.576a16.724,16.724,0,0,1-16.6-16.854v-.3a.445.445,0,0,1,.447-.442H27.839a.5.5,0,0,1,.477.552,4.957,4.957,0,0,0,.516,2.8,5.063,5.063,0,0,0,4.548,2.853h7.139V51.2h-7.06a.462.462,0,0,1-.367-.723c.079-.121.159-.241.258-.382.665-.964,1.618-2.451,2.572-4.148a33.5,33.5,0,0,0,1.777-3.6c.1-.221.179-.452.268-.673.139-.392.278-.763.377-1.125.1-.311.189-.633.268-.934a14.825,14.825,0,0,0,.338-3.294c0-.452-.02-.924-.06-1.366-.02-.492-.079-.984-.139-1.476-.04-.432-.119-.864-.2-1.306-.109-.653-.248-1.306-.407-1.959l-.06-.251c-.119-.452-.228-.874-.367-1.326-.407-1.406-.864-2.782-1.36-4.068-.179-.512-.377-1-.586-1.487-.3-.743-.606-1.416-.884-2.049-.149-.291-.268-.552-.387-.824-.139-.3-.278-.6-.427-.894-.1-.221-.218-.432-.3-.633L32.9,17.06a.288.288,0,0,1,.318-.422l5.461,1.5h.04l.715.211.794.221.288.08V15.372a2.837,2.837,0,0,1,2.81-2.873,2.72,2.72,0,0,1,1.976.844,2.9,2.9,0,0,1,.824,2.029v4.871l.586.161a.817.817,0,0,1,.129.07c.139.1.348.261.606.462.209.161.427.362.685.573.526.432,1.162.984,1.847,1.617.179.161.357.321.526.492.884.834,1.877,1.808,2.83,2.893.268.311.526.613.794.944s.546.653.784.974c.328.432.665.884.973,1.356.139.221.308.452.437.673.4.593.735,1.205,1.062,1.818.139.281.278.593.4.894a12.534,12.534,0,0,1,.834,2.5,2.748,2.748,0,0,1,.119.552v.04a4.7,4.7,0,0,1,.1.773,8.707,8.707,0,0,1-.139,2.581c-.079.362-.179.7-.3,1.075-.129.352-.248.713-.407,1.065a14.507,14.507,0,0,1-1.092,2.1c-.139.251-.308.512-.467.763-.179.261-.367.512-.526.753-.228.311-.467.633-.715.924a9.788,9.788,0,0,1-.685.874c-.338.412-.665.793-1.013,1.165a8.674,8.674,0,0,1-.645.713c-.218.251-.447.472-.645.673-.348.352-.626.613-.864.844l-.566.512a.418.418,0,0,1-.3.121H46.129v5.635H51.6a5.054,5.054,0,0,0,3.326-1.245A40.6,40.6,0,0,0,58.3,52.235a.389.389,0,0,1,.209-.131l15.1-4.419a.443.443,0,0,1,.566.432Z" transform="translate(4.921 5.979)" fill="#fff"/>
    </g>
  </g>
</svg>
