<?xml version="1.0"?>
<svg xmlns="http://www.w3.org/2000/svg" xmlns:xlink="http://www.w3.org/1999/xlink" width="200" height="200" viewBox="0 0 200 200">
  <defs>
    <style>
      .cls-1 {
        fill: none;
      }

      .cls-2 {
        clip-path: url(#clip-KJ_-_Please_Scroll);
      }

      .cls-3 {
        clip-path: url(#clip-path);
      }

      .cls-4 {
        fill: #ff073a;
      }
    </style>
    <clipPath id="clip-path">
      <rect id="Rechteck_125" data-name="Rechteck 125" class="cls-1" width="199" height="199"/>
    </clipPath>
    <clipPath id="clip-KJ_-_Please_Scroll">
      <rect width="200" height="200"/>
    </clipPath>
  </defs>
  <g id="KJ_-_Please_Scroll" data-name="KJ - Please Scroll" class="cls-2">
    <g id="Gruppe_192" data-name="Gruppe 192" transform="translate(1 1)">
      <g id="Gruppe_191" data-name="Gruppe 191" class="cls-3">
        <path id="Pfad_636" data-name="Pfad 636" class="cls-4" d="M151.341,17.318,149.109,2.664l5.227-.8a5.871,5.871,0,0,1,2.93.192A4.1,4.1,0,0,1,159.207,3.5a5.239,5.239,0,0,1,.927,2.337,5.223,5.223,0,0,1-.192,2.515,4.14,4.14,0,0,1-1.43,1.96,5.845,5.845,0,0,1-2.736,1.056l-3.594.547-.285-1.875,3.394-.516a3.624,3.624,0,0,0,1.7-.642,2.346,2.346,0,0,0,.832-1.177,3.4,3.4,0,0,0,.089-1.529,3.357,3.357,0,0,0-.54-1.426,2.289,2.289,0,0,0-1.145-.858,3.788,3.788,0,0,0-1.835-.094l-2.778.422,1.943,12.758Z" transform="translate(-69.448 -0.826)"/>
        <path id="Pfad_637" data-name="Pfad 637" class="cls-4" d="M178.117,14.857,177.876.036,180.114,0l.209,12.9,6.72-.109.032,1.925Z" transform="translate(-82.846 0)"/>
        <path id="Pfad_638" data-name="Pfad 638" class="cls-4" d="M200.921,15.328,203.048.658l9.2,1.333L211.974,3.9l-6.988-1.012-.648,4.47,6.508.943-.275,1.9-6.508-.943-.651,4.491,7.073,1.025-.276,1.906Z" transform="translate(-93.579 -0.306)"/>
        <path id="Pfad_639" data-name="Pfad 639" class="cls-4" d="M225.493,21.353l-2.261-.729,9.633-12.47,2.46.793.527,15.746-2.261-.729-.265-12.831-.111-.036Zm2.162-5.4,7.333,2.365-.578,1.791-7.333-2.365Z" transform="translate(-103.97 -3.8)"/>
        <path id="Pfad_640" data-name="Pfad 640" class="cls-4" d="M264.22,24.99a2.124,2.124,0,0,0-.111-1.857,3.69,3.69,0,0,0-1.614-1.479,4,4,0,0,0-1.533-.475,2.447,2.447,0,0,0-1.276.218,1.848,1.848,0,0,0-.844.83,1.633,1.633,0,0,0-.2.924,2.116,2.116,0,0,0,.289.872,4.567,4.567,0,0,0,.583.785,9.346,9.346,0,0,0,.675.665l1.111,1a11.041,11.041,0,0,1,1.074,1.089,5.822,5.822,0,0,1,.866,1.331,3.8,3.8,0,0,1,.361,1.542,3.51,3.51,0,0,1-.442,1.7,3.959,3.959,0,0,1-1.608,1.685,4.376,4.376,0,0,1-2.375.5,7.063,7.063,0,0,1-2.892-.867,7.2,7.2,0,0,1-2.313-1.8,4.425,4.425,0,0,1-1-2.211,4.324,4.324,0,0,1,.393-2.4l1.992,1.036a2.258,2.258,0,0,0-.151,1.427,2.74,2.74,0,0,0,.683,1.245,4.674,4.674,0,0,0,1.285.957,4.473,4.473,0,0,0,1.639.514,2.8,2.8,0,0,0,1.425-.206,1.975,1.975,0,0,0,.962-.924,1.561,1.561,0,0,0,.167-1.129,2.818,2.818,0,0,0-.572-1.08,9.957,9.957,0,0,0-1.045-1.09l-1.334-1.232A6.783,6.783,0,0,1,256.576,24a3.193,3.193,0,0,1,.228-2.688,3.7,3.7,0,0,1,1.649-1.664,4.6,4.6,0,0,1,2.357-.451,6.489,6.489,0,0,1,2.623.764,6.322,6.322,0,0,1,2.117,1.7,4.488,4.488,0,0,1,.946,2.127,3.681,3.681,0,0,1-.361,2.2Z" transform="translate(-117.807 -8.943)"/>
        <path id="Pfad_641" data-name="Pfad 641" class="cls-4" d="M273.981,43.458l8.847-11.9,7.463,5.544-1.149,1.545-5.667-4.21-2.7,3.625,5.277,3.92-1.145,1.54-5.277-3.92-2.709,3.642,5.737,4.261-1.149,1.545Z" transform="translate(-127.607 -14.709)"/>
        <path id="Pfad_642" data-name="Pfad 642" class="cls-4" d="M316.774,69.707a2.127,2.127,0,0,0,.612-1.757,3.688,3.688,0,0,0-.921-1.986,3.994,3.994,0,0,0-1.233-1.027,2.447,2.447,0,0,0-1.262-.29,1.854,1.854,0,0,0-1.1.443,1.626,1.626,0,0,0-.539.776,2.12,2.12,0,0,0-.069.916,4.546,4.546,0,0,0,.237.949,9.161,9.161,0,0,0,.367.873l.64,1.351a10.965,10.965,0,0,1,.573,1.418,5.829,5.829,0,0,1,.287,1.562,3.778,3.778,0,0,1-.26,1.562,3.5,3.5,0,0,1-1.063,1.4,3.961,3.961,0,0,1-2.133.938,4.372,4.372,0,0,1-2.386-.449,7.053,7.053,0,0,1-2.336-1.912,7.184,7.184,0,0,1-1.444-2.549,4.425,4.425,0,0,1-.069-2.424,4.325,4.325,0,0,1,1.288-2.066l1.44,1.721a2.255,2.255,0,0,0-.688,1.259,2.736,2.736,0,0,0,.152,1.411,4.687,4.687,0,0,0,.817,1.378,4.476,4.476,0,0,0,1.315,1.1,2.79,2.79,0,0,0,1.4.358,1.976,1.976,0,0,0,1.243-.483,1.562,1.562,0,0,0,.588-.978,2.826,2.826,0,0,0-.112-1.218,10.014,10.014,0,0,0-.545-1.407l-.758-1.65a6.784,6.784,0,0,1-.715-3.077,3.2,3.2,0,0,1,1.244-2.394,3.7,3.7,0,0,1,2.163-.9,4.6,4.6,0,0,1,2.35.489,6.491,6.491,0,0,1,2.127,1.713,6.335,6.335,0,0,1,1.3,2.38,4.492,4.492,0,0,1,.055,2.327,3.686,3.686,0,0,1-1.179,1.891Z" transform="translate(-141.839 -29.152)"/>
        <path id="Pfad_643" data-name="Pfad 643" class="cls-4" d="M334.631,98.245,333.5,96.291a3.454,3.454,0,0,0,.86-1.058,3.556,3.556,0,0,0,.372-1.22,3.761,3.761,0,0,0-.073-1.283,4.538,4.538,0,0,0-.5-1.26,4.167,4.167,0,0,0-1.706-1.66,4.365,4.365,0,0,0-2.434-.431,8.27,8.27,0,0,0-5.277,3.054,4.3,4.3,0,0,0-.829,2.325,4.194,4.194,0,0,0,.591,2.292,4.578,4.578,0,0,0,.836,1.059,3.761,3.761,0,0,0,1.067.708,3.523,3.523,0,0,0,1.236.293,3.476,3.476,0,0,0,1.336-.2l1.126,1.958a6.072,6.072,0,0,1-2.09.4,5.568,5.568,0,0,1-2.03-.356,6.006,6.006,0,0,1-1.811-1.081,6.793,6.793,0,0,1-1.446-1.773,6.466,6.466,0,0,1-.927-3.428,6.325,6.325,0,0,1,1.083-3.365,10.024,10.024,0,0,1,7.062-4.083,6.368,6.368,0,0,1,3.459.742,6.466,6.466,0,0,1,2.51,2.5,7.032,7.032,0,0,1,.813,2.076,5.926,5.926,0,0,1,.072,2.087,5.5,5.5,0,0,1-.688,1.962,6.145,6.145,0,0,1-1.477,1.691" transform="translate(-149.876 -40.626)"/>
        <path id="Pfad_644" data-name="Pfad 644" class="cls-4" d="M332.051,118.66l13.932-5.084,1.813,4.963a6.163,6.163,0,0,1,.424,2.893,3.946,3.946,0,0,1-.956,2.164,5.017,5.017,0,0,1-2.075,1.358,4.88,4.88,0,0,1-2.443.287,3.875,3.875,0,0,1-2.093-1.055,6.368,6.368,0,0,1-1.52-2.493l-1.373-3.76,1.809-.661,1.3,3.57a4.3,4.3,0,0,0,.9,1.555,2.064,2.064,0,0,0,1.195.631,2.979,2.979,0,0,0,1.449-.19,3.092,3.092,0,0,0,1.257-.8,2.143,2.143,0,0,0,.543-1.269,4.146,4.146,0,0,0-.305-1.8l-.963-2.639-12.13,4.426Zm8.8,4.58-5.029,5.734-.874-2.393L340,120.915Z" transform="translate(-154.653 -52.932)"/>
        <path id="Pfad_645" data-name="Pfad 645" class="cls-4" d="M350.6,156.987a8.9,8.9,0,0,1-4.17-.154,6.359,6.359,0,0,1-2.991-1.891,6.882,6.882,0,0,1-1.181-6.759,6.342,6.342,0,0,1,2.177-2.794,10.013,10.013,0,0,1,8.036-1.4,6.362,6.362,0,0,1,2.992,1.892,6.884,6.884,0,0,1,1.181,6.759,6.356,6.356,0,0,1-2.173,2.793,8.9,8.9,0,0,1-3.871,1.557m-.381-2.182a7.154,7.154,0,0,0,2.906-1.1,4.339,4.339,0,0,0,1.581-1.892,4.394,4.394,0,0,0-.786-4.5,4.346,4.346,0,0,0-2.129-1.241,8.293,8.293,0,0,0-6.014,1.049,4.348,4.348,0,0,0-1.581,1.89,4.394,4.394,0,0,0,.786,4.5,4.338,4.338,0,0,0,2.13,1.245,7.157,7.157,0,0,0,3.107.05" transform="translate(-159.211 -66.953)"/>
        <path id="Pfad_646" data-name="Pfad 646" class="cls-4" d="M344.66,177.3l14.83-.24.036,2.236-12.9.209.109,6.716-1.927.031Z" transform="translate(-160.525 -82.517)"/>
        <path id="Pfad_647" data-name="Pfad 647" class="cls-4" d="M343.3,200.165,358,202.176l-.3,2.216-12.786-1.75L344,209.3l-1.908-.262Z" transform="translate(-159.328 -93.286)"/>
        <path id="Pfad_648" data-name="Pfad 648" class="cls-4" d="M336.78,234.691l13.834,5.345-1.906,4.928a5.859,5.859,0,0,1-1.622,2.446,4.1,4.1,0,0,1-2.218.967,5.6,5.6,0,0,1-4.578-1.773,4.137,4.137,0,0,1-.992-2.214,5.841,5.841,0,0,1,.442-2.9l1.311-3.388,1.77.683-1.238,3.2a3.614,3.614,0,0,0-.285,1.791,2.344,2.344,0,0,0,.609,1.306,3.4,3.4,0,0,0,1.283.837,3.352,3.352,0,0,0,1.506.241,2.288,2.288,0,0,0,1.314-.567A3.785,3.785,0,0,0,347,244.05l1.013-2.619-12.044-4.653Z" transform="translate(-156.48 -109.377)"/>
        <path id="Pfad_649" data-name="Pfad 649" class="cls-4" d="M323.888,258.045l12.87,7.367-1.112,1.941-11.2-6.411-3.34,5.829-1.672-.957Z" transform="translate(-148.777 -120.261)"/>
        <path id="Pfad_650" data-name="Pfad 650" class="cls-4" d="M311.1,277.376l11.655,9.168-5.751,7.3-1.514-1.191,4.367-5.546-3.551-2.793-4.067,5.164-1.508-1.186,4.067-5.164-3.568-2.807-4.42,5.614-1.514-1.191Z" transform="translate(-142.189 -129.27)"/>
        <path id="Pfad_651" data-name="Pfad 651" class="cls-4" d="M291.757,296.638l1.758-1.6,6.026,14.557-1.913,1.737L283.7,303.955l1.758-1.6,11.267,6.158.086-.078Zm3.612,4.563-5.7,5.18-1.266-1.393,5.7-5.179Z" transform="translate(-132.134 -137.504)"/>
        <path id="Pfad_652" data-name="Pfad 652" class="cls-4" d="M272.549,329.138a2.128,2.128,0,0,0,1.668.826,3.7,3.7,0,0,0,2.086-.666,3.981,3.981,0,0,0,1.173-1.095,2.441,2.441,0,0,0,.444-1.215,1.848,1.848,0,0,0-.3-1.144,1.637,1.637,0,0,0-.7-.632,2.122,2.122,0,0,0-.9-.182,4.633,4.633,0,0,0-.971.116,9.365,9.365,0,0,0-.912.256l-1.422.467a10.99,10.99,0,0,1-1.479.391,5.813,5.813,0,0,1-1.586.091,3.8,3.8,0,0,1-1.518-.452,3.514,3.514,0,0,1-1.261-1.229,3.953,3.953,0,0,1-.666-2.231,4.372,4.372,0,0,1,.742-2.311,7.055,7.055,0,0,1,2.189-2.079,7.193,7.193,0,0,1,2.71-1.114,4.426,4.426,0,0,1,2.415.233,4.323,4.323,0,0,1,1.891,1.533l-1.888,1.215a2.264,2.264,0,0,0-1.165-.839,2.751,2.751,0,0,0-1.42-.025,4.691,4.691,0,0,0-1.47.64,4.475,4.475,0,0,0-1.259,1.167,2.786,2.786,0,0,0-.529,1.339,1.974,1.974,0,0,0,.324,1.293,1.567,1.567,0,0,0,.9.705,2.819,2.819,0,0,0,1.223.04,9.955,9.955,0,0,0,1.465-.365l1.733-.547a6.8,6.8,0,0,1,3.143-.326,3.2,3.2,0,0,1,2.222,1.532,3.7,3.7,0,0,1,.626,2.257,4.588,4.588,0,0,1-.778,2.269,6.48,6.48,0,0,1-1.965,1.9,6.346,6.346,0,0,1-2.524.995,4.5,4.5,0,0,1-2.317-.235,3.685,3.685,0,0,1-1.731-1.4Z" transform="translate(-123.982 -147.674)"/>
        <path id="Pfad_653" data-name="Pfad 653" class="cls-4" d="M249.973,327.982l5.937,13.584-8.521,3.72-.771-1.764,6.471-2.826-1.809-4.138-6.026,2.63-.768-1.758,6.026-2.63-1.818-4.159-6.55,2.86-.771-1.765Z" transform="translate(-112.419 -152.856)"/>
        <path id="Pfad_654" data-name="Pfad 654" class="cls-4" d="M208.552,353.134a2.127,2.127,0,0,0,1.218,1.406,3.7,3.7,0,0,0,2.181.194,3.989,3.989,0,0,0,1.506-.555,2.439,2.439,0,0,0,.881-.948,1.847,1.847,0,0,0,.166-1.172,1.633,1.633,0,0,0-.4-.855,2.111,2.111,0,0,0-.76-.517,4.533,4.533,0,0,0-.94-.269,9.433,9.433,0,0,0-.94-.118l-1.492-.12a11.093,11.093,0,0,1-1.515-.212,5.837,5.837,0,0,1-1.5-.531,3.794,3.794,0,0,1-1.224-1,3.5,3.5,0,0,1-.685-1.622,3.955,3.955,0,0,1,.251-2.315,4.371,4.371,0,0,1,1.581-1.843,7.058,7.058,0,0,1,2.823-1.068,7.206,7.206,0,0,1,2.93.022,4.434,4.434,0,0,1,2.136,1.15,4.319,4.319,0,0,1,1.149,2.146l-2.211.388a2.262,2.262,0,0,0-.748-1.224,2.74,2.74,0,0,0-1.3-.573,4.676,4.676,0,0,0-1.6.02,4.477,4.477,0,0,0-1.613.588,2.779,2.779,0,0,0-1.007,1.029,1.974,1.974,0,0,0-.2,1.318,1.564,1.564,0,0,0,.554,1,2.835,2.835,0,0,0,1.112.51,10.091,10.091,0,0,0,1.493.23l1.808.168a6.783,6.783,0,0,1,3.025.917,3.2,3.2,0,0,1,1.455,2.272,3.7,3.7,0,0,1-.3,2.323,4.59,4.59,0,0,1-1.6,1.79,6.483,6.483,0,0,1-2.547.987,6.342,6.342,0,0,1-2.713-.06,4.5,4.5,0,0,1-2.045-1.114,3.687,3.687,0,0,1-1.051-1.965Z" transform="translate(-95.467 -159.131)"/>
        <path id="Pfad_655" data-name="Pfad 655" class="cls-4" d="M174.941,354.476l2.259-.036a3.448,3.448,0,0,0,.506,1.265,3.552,3.552,0,0,0,.884.919,3.745,3.745,0,0,0,1.157.561,4.545,4.545,0,0,0,1.347.174,4.175,4.175,0,0,0,2.281-.681,4.356,4.356,0,0,0,1.562-1.915,8.253,8.253,0,0,0-.1-6.093,4.308,4.308,0,0,0-1.627-1.856,4.2,4.2,0,0,0-2.291-.6,4.585,4.585,0,0,0-1.332.214,3.78,3.78,0,0,0-1.138.586,3.555,3.555,0,0,0-.858.937,3.479,3.479,0,0,0-.475,1.264l-2.259.029a6.068,6.068,0,0,1,.666-2.02,5.573,5.573,0,0,1,1.3-1.6,5.99,5.99,0,0,1,1.826-1.054,6.835,6.835,0,0,1,2.253-.4,6.483,6.483,0,0,1,3.447.86,6.338,6.338,0,0,1,2.414,2.585,10.014,10.014,0,0,1,.129,8.153,6.363,6.363,0,0,1-2.333,2.658,6.465,6.465,0,0,1-3.41.971,7.029,7.029,0,0,1-2.21-.3,5.919,5.919,0,0,1-1.859-.954,5.485,5.485,0,0,1-1.379-1.556,6.118,6.118,0,0,1-.759-2.112" transform="translate(-81.439 -160.4)"/>
        <path id="Pfad_656" data-name="Pfad 656" class="cls-4" d="M157.984,342.2l-2.508,14.609-5.211-.893a6.166,6.166,0,0,1-2.723-1.069,3.95,3.95,0,0,1-1.4-1.9,5.006,5.006,0,0,1-.149-2.475,4.874,4.874,0,0,1,.965-2.261,3.87,3.87,0,0,1,1.956-1.292,6.362,6.362,0,0,1,2.919-.08l3.948.677-.326,1.9-3.747-.643a4.312,4.312,0,0,0-1.8.008,2.06,2.06,0,0,0-1.142.722,2.965,2.965,0,0,0-.555,1.351,3.092,3.092,0,0,0,.071,1.488,2.144,2.144,0,0,0,.832,1.1,4.156,4.156,0,0,0,1.711.627l2.769.475,2.183-12.719Zm-8.348,5.354-2.48-7.211,2.513.431,2.408,7.2Z" transform="translate(-67.955 -158.617)"/>
        <path id="Pfad_657" data-name="Pfad 657" class="cls-4" d="M115.438,339.3a8.882,8.882,0,0,1,2.205-3.54,6.357,6.357,0,0,1,3.129-1.655,6.894,6.894,0,0,1,6.456,2.334,6.35,6.35,0,0,1,1.344,3.276,10,10,0,0,1-2.776,7.668,6.356,6.356,0,0,1-3.129,1.654,6.89,6.89,0,0,1-6.456-2.334,6.356,6.356,0,0,1-1.345-3.273,8.877,8.877,0,0,1,.571-4.131m2.084.753a7.145,7.145,0,0,0-.49,3.067,4.334,4.334,0,0,0,.857,2.311,4.4,4.4,0,0,0,4.3,1.555,4.344,4.344,0,0,0,2.135-1.229,8.278,8.278,0,0,0,2.077-5.738,4.35,4.35,0,0,0-.854-2.31,4.4,4.4,0,0,0-4.3-1.555,4.342,4.342,0,0,0-2.139,1.228,7.159,7.159,0,0,0-1.587,2.67" transform="translate(-53.474 -155.651)"/>
        <path id="Pfad_658" data-name="Pfad 658" class="cls-4" d="M106.839,323.907,99.512,336.8l-1.946-1.105,6.376-11.214L98.1,321.158l.951-1.674Z" transform="translate(-45.441 -148.895)"/>
        <path id="Pfad_659" data-name="Pfad 659" class="cls-4" d="M86.094,311.391l-9.081,11.72-1.769-1.37,7.9-10.2-5.314-4.112,1.18-1.523Z" transform="translate(-35.044 -142.568)"/>
        <path id="Pfad_660" data-name="Pfad 660" class="cls-4" d="M54.882,290.378l-11.518,9.338-3.33-4.1a5.864,5.864,0,0,1-1.318-2.622,4.1,4.1,0,0,1,.263-2.4,5.6,5.6,0,0,1,3.816-3.089,4.142,4.142,0,0,1,2.415.241,5.837,5.837,0,0,1,2.3,1.824l2.29,2.821-1.473,1.194-2.163-2.664a3.61,3.61,0,0,0-1.413-1.137,2.346,2.346,0,0,0-1.437-.122,3.41,3.41,0,0,0-1.365.7,3.348,3.348,0,0,0-.958,1.187,2.287,2.287,0,0,0-.161,1.421,3.787,3.787,0,0,0,.847,1.629l1.77,2.182,10.028-8.131Z" transform="translate(-17.998 -133.949)"/>
        <path id="Pfad_661" data-name="Pfad 661" class="cls-4" d="M41.459,266.186,28.672,273.7l-1.134-1.928,11.127-6.534-3.405-5.791,1.661-.975Z" transform="translate(-12.826 -120.458)"/>
        <path id="Pfad_662" data-name="Pfad 662" class="cls-4" d="M27.557,245.669,13.805,251.22,10.322,242.6l1.787-.721,2.644,6.544,4.19-1.692-2.462-6.094,1.78-.718,2.462,6.093,4.21-1.7-2.677-6.624,1.787-.721Z" transform="translate(-4.808 -110.44)"/>
        <path id="Pfad_663" data-name="Pfad 663" class="cls-4" d="M19.647,218.663l.508,2.319-15.63-2.041-.553-2.524,13.347-8.381.508,2.319-10.96,6.688.025.113Zm-5.759.853-1.648-7.523,1.839-.4,1.648,7.523Z" transform="translate(-1.85 -96.955)"/>
        <path id="Pfad_664" data-name="Pfad 664" class="cls-4" d="M3.956,186.8a2.127,2.127,0,0,0-1.548,1.033,3.688,3.688,0,0,0-.464,2.138,3.972,3.972,0,0,0,.364,1.562,2.441,2.441,0,0,0,.832.992,1.853,1.853,0,0,0,1.143.309,1.631,1.631,0,0,0,.9-.294,2.113,2.113,0,0,0,.608-.689,4.515,4.515,0,0,0,.384-.9,9.215,9.215,0,0,0,.233-.917l.305-1.465a11.078,11.078,0,0,1,.4-1.476,5.833,5.833,0,0,1,.713-1.419,3.775,3.775,0,0,1,1.15-1.09,3.513,3.513,0,0,1,1.695-.478,3.965,3.965,0,0,1,2.267.537,4.373,4.373,0,0,1,1.633,1.8,7.045,7.045,0,0,1,.711,2.932,7.19,7.19,0,0,1-.386,2.9,4.422,4.422,0,0,1-1.407,1.975,4.321,4.321,0,0,1-2.273.873l-.111-2.24a2.261,2.261,0,0,0,1.308-.591,2.738,2.738,0,0,0,.73-1.217,4.674,4.674,0,0,0,.179-1.592,4.457,4.457,0,0,0-.384-1.673,2.778,2.778,0,0,0-.9-1.127,1.979,1.979,0,0,0-1.283-.364,1.568,1.568,0,0,0-1.059.425,2.834,2.834,0,0,0-.645,1.04,10,10,0,0,0-.414,1.451l-.391,1.773A6.787,6.787,0,0,1,6.96,193.9a3.2,3.2,0,0,1-2.437,1.16,3.7,3.7,0,0,1-2.269-.584,4.586,4.586,0,0,1-1.579-1.806,6.48,6.48,0,0,1-.664-2.648,6.34,6.34,0,0,1,.4-2.683,4.5,4.5,0,0,1,1.361-1.89,3.689,3.689,0,0,1,2.081-.8Z" transform="translate(0 -85.801)"/>
        <path id="Pfad_665" data-name="Pfad 665" class="cls-4" d="M15.111,167.749l-14.745-1.6,1.005-9.239,1.915.208-.763,7.016,4.493.489.711-6.534,1.908.207-.711,6.533,4.514.491.773-7.1,1.915.208Z" transform="translate(-0.171 -73.127)"/>
        <path id="Pfad_666" data-name="Pfad 666" class="cls-4" d="M15.412,117.939a2.126,2.126,0,0,0-1.826.358,3.687,3.687,0,0,0-1.252,1.8,3.981,3.981,0,0,0-.266,1.582,2.434,2.434,0,0,0,.386,1.236,1.851,1.851,0,0,0,.935.725,1.629,1.629,0,0,0,.943.075,2.114,2.114,0,0,0,.826-.4,4.52,4.52,0,0,0,.7-.683,9.118,9.118,0,0,0,.569-.757l.846-1.233a11.016,11.016,0,0,1,.937-1.209,5.837,5.837,0,0,1,1.2-1.035,3.79,3.79,0,0,1,1.481-.563,3.511,3.511,0,0,1,1.749.211A3.956,3.956,0,0,1,24.53,119.4a4.369,4.369,0,0,1,.815,2.286,7.049,7.049,0,0,1-.474,2.979A7.189,7.189,0,0,1,23.4,127.2a4.425,4.425,0,0,1-2.06,1.281,4.321,4.321,0,0,1-2.435-.069l.761-2.111a2.266,2.266,0,0,0,1.435-.041,2.744,2.744,0,0,0,1.143-.842,4.687,4.687,0,0,0,.779-1.4,4.486,4.486,0,0,0,.291-1.692,2.785,2.785,0,0,0-.394-1.385,1.981,1.981,0,0,0-1.044-.83,1.568,1.568,0,0,0-1.142-.015,2.827,2.827,0,0,0-1,.711,9.955,9.955,0,0,0-.941,1.18l-1.044,1.486a6.794,6.794,0,0,1-2.3,2.169,3.2,3.2,0,0,1-2.7.132,3.7,3.7,0,0,1-1.869-1.412,4.585,4.585,0,0,1-.761-2.275,6.471,6.471,0,0,1,.408-2.7,6.325,6.325,0,0,1,1.4-2.323,4.5,4.5,0,0,1,1.984-1.221,3.692,3.692,0,0,1,2.228.065Z" transform="translate(-4.708 -53.923)"/>
        <path id="Pfad_667" data-name="Pfad 667" class="cls-4" d="M31.17,87.539,30.05,89.5a3.444,3.444,0,0,0-1.347-.211,3.575,3.575,0,0,0-1.242.291,3.778,3.778,0,0,0-1.073.709,4.544,4.544,0,0,0-.836,1.07,4.168,4.168,0,0,0-.577,2.309,4.361,4.361,0,0,0,.852,2.319A7.145,7.145,0,0,0,28.179,98a7.177,7.177,0,0,0,2.943,1.008,4.308,4.308,0,0,0,2.427-.452,4.2,4.2,0,0,0,1.684-1.664,4.569,4.569,0,0,0,.5-1.255,3.78,3.78,0,0,0,.075-1.278,3.531,3.531,0,0,0-.369-1.215,3.469,3.469,0,0,0-.845-1.053l1.127-1.957a6.055,6.055,0,0,1,1.4,1.6,5.564,5.564,0,0,1,.714,1.933,5.99,5.99,0,0,1-.024,2.108A6.813,6.813,0,0,1,37,97.917a6.472,6.472,0,0,1-2.5,2.525,6.338,6.338,0,0,1-3.456.758,8.93,8.93,0,0,1-3.97-1.27,8.889,8.889,0,0,1-3.113-2.777,6.358,6.358,0,0,1-1.1-3.361,6.453,6.453,0,0,1,.9-3.427,7.04,7.04,0,0,1,1.386-1.748,5.93,5.93,0,0,1,1.769-1.111,5.48,5.48,0,0,1,2.042-.393,6.139,6.139,0,0,1,2.2.425" transform="translate(-10.648 -40.599)"/>
        <path id="Pfad_668" data-name="Pfad 668" class="cls-4" d="M48.523,78.456,37.108,68.992l3.376-4.067A6.164,6.164,0,0,1,42.77,63.1a3.951,3.951,0,0,1,2.351-.265,5.007,5.007,0,0,1,2.22,1.106,4.882,4.882,0,0,1,1.479,1.965,3.863,3.863,0,0,1,.143,2.339,6.35,6.35,0,0,1-1.389,2.568l-2.557,3.08-1.483-1.229,2.428-2.924a4.3,4.3,0,0,0,.891-1.561,2.063,2.063,0,0,0-.056-1.349,2.983,2.983,0,0,0-.895-1.155,3.1,3.1,0,0,0-1.326-.681,2.145,2.145,0,0,0-1.37.171,4.157,4.157,0,0,0-1.4,1.169L40.014,68.5l9.938,8.239Zm-.475-9.9,7.49,1.452L53.91,71.967l-7.443-1.508Z" transform="translate(-17.283 -29.25)"/>
        <path id="Pfad_669" data-name="Pfad 669" class="cls-4" d="M73.762,43.861a8.892,8.892,0,0,1,1.976,3.673,6.349,6.349,0,0,1-.12,3.536,6.887,6.887,0,0,1-5.237,4.438,6.356,6.356,0,0,1-3.512-.463,10.005,10.005,0,0,1-5.276-6.22,6.35,6.35,0,0,1,.12-3.536,6.886,6.886,0,0,1,5.237-4.437,6.357,6.357,0,0,1,3.509.461,8.9,8.9,0,0,1,3.3,2.549m-1.69,1.432a7.16,7.16,0,0,0-2.419-1.95,4.344,4.344,0,0,0-2.433-.406,4.4,4.4,0,0,0-3.489,2.956,4.346,4.346,0,0,0,.005,2.463,8.274,8.274,0,0,0,3.948,4.654,4.352,4.352,0,0,0,2.43.408A4.4,4.4,0,0,0,73.6,50.463,4.336,4.336,0,0,0,73.6,48a7.154,7.154,0,0,0-1.529-2.7" transform="translate(-28.597 -19.003)"/>
        <path id="Pfad_670" data-name="Pfad 670" class="cls-4" d="M92.524,41.52,84.966,28.765l1.926-1.139,6.576,11.1L99.25,35.3l.981,1.656Z" transform="translate(-39.573 -12.875)"/>
        <path id="Pfad_671" data-name="Pfad 671" class="cls-4" d="M113.824,29.894l-5.665-13.7,2.069-.855,4.929,11.92,6.211-2.565.736,1.779Z" transform="translate(-50.375 -7.149)"/>
      </g>
    </g>
  </g>
</svg>
