<svg xmlns="http://www.w3.org/2000/svg" xmlns:xlink="http://www.w3.org/1999/xlink" width="100" height="100" viewBox="0 0 100 100">
  <defs>
    <clipPath id="clip-path">
      <rect id="Rechteck_112" data-name="Rechteck 112" width="92.384" height="93.388" fill="#fff" stroke="#fff" stroke-width="1"/>
    </clipPath>
    <clipPath id="clip-KJ_-_singulart">
      <rect width="100" height="100"/>
    </clipPath>
  </defs>
  <g id="KJ_-_singulart" data-name="KJ - singulart" clip-path="url(#clip-KJ_-_singulart)">
    <g id="Ellipse_Fb" data-name="Ellipse Fb" fill="none" stroke="#fff" stroke-width="4">
      <circle cx="50" cy="50" r="50" stroke="none"/>
      <circle cx="50" cy="50" r="48" fill="none"/>
    </g>
    <g id="Gruppe_122" data-name="Gruppe 122" transform="translate(3.808 3.306)">
      <g id="Gruppe_maskieren_121" data-name="Gruppe maskieren 121" clip-path="url(#clip-path)">
        <path id="Pfad_583" data-name="Pfad 583" d="M71.822,47.453c.359-.646,2.3-4.519,2.367-7.244a16.668,16.668,0,0,0-1-6.312,15.6,15.6,0,0,0-5.523-7.316A15.272,15.272,0,0,0,58.839,23.5a16.3,16.3,0,0,0-6.24,1A16.022,16.022,0,0,0,45.354,30.1a16.624,16.624,0,0,0-3.084,8.966,14.844,14.844,0,0,0,.717,5.093A18.534,18.534,0,0,0,44.494,47.6a29.516,29.516,0,0,0,3.371,4.662A58.876,58.876,0,0,0,52.1,56.491c1.435,1.219,2.8,2.439,4.088,3.586.932.861,1.865,1.721,2.654,2.582a15.583,15.583,0,0,1,2.726,3.515,11.805,11.805,0,0,1,.646,1.506,2.852,2.852,0,0,1,.143,1.291,1.795,1.795,0,1,0,3.586.143,11.675,11.675,0,0,0-.215-2.224,12.034,12.034,0,0,0-1.65-3.515,29.571,29.571,0,0,0-4.3-4.877c-1.65-1.578-3.515-3.156-5.379-4.806a40.621,40.621,0,0,1-3.515-3.515,22.509,22.509,0,0,1-3.8-5.38,14.572,14.572,0,0,1-1-2.8,13.2,13.2,0,0,1-.287-2.941,13.88,13.88,0,0,1,1.148-4.877,12.29,12.29,0,0,1,4.734-5.38A11.778,11.778,0,0,1,58.7,26.939,13.135,13.135,0,0,1,63.5,28.087a12.563,12.563,0,0,1,5.308,4.734,12.7,12.7,0,0,1,1.865,7.1,18.968,18.968,0,0,1-1.219,5.021ZM43.848,59a16.408,16.408,0,0,0-2.152,7.46,16.668,16.668,0,0,0,1,6.312,15.6,15.6,0,0,0,5.523,7.316,15.271,15.271,0,0,0,8.822,3.084,16.3,16.3,0,0,0,6.24-1,16.022,16.022,0,0,0,7.244-5.595,16.592,16.592,0,0,0,3.084-8.894,14.844,14.844,0,0,0-.717-5.093,18.532,18.532,0,0,0-1.506-3.443,29.514,29.514,0,0,0-3.371-4.662,58.874,58.874,0,0,0-4.232-4.232c-1.435-1.219-2.8-2.439-4.088-3.586-.932-.861-1.865-1.721-2.654-2.582a15.583,15.583,0,0,1-2.726-3.515,11.808,11.808,0,0,1-.646-1.506,2.852,2.852,0,0,1-.143-1.291,1.795,1.795,0,0,0-3.586-.143,11.677,11.677,0,0,0,.215,2.224,11.236,11.236,0,0,0,1.65,3.515,29.57,29.57,0,0,0,4.3,4.877c1.65,1.578,3.515,3.156,5.379,4.806a40.622,40.622,0,0,1,3.515,3.515,22.508,22.508,0,0,1,3.8,5.379,14.573,14.573,0,0,1,1,2.8A13.2,13.2,0,0,1,70.1,67.68a13.88,13.88,0,0,1-1.148,4.877,12.289,12.289,0,0,1-4.734,5.379A11.778,11.778,0,0,1,57.189,79.8,12.339,12.339,0,0,1,47.076,73.92a12.7,12.7,0,0,1-1.865-7.1,13.881,13.881,0,0,1,1.148-4.877.25.25,0,0,1,.072-.143Zm7.675-2.869h0" transform="translate(-11.786 -6.641)" fill="#fff" stroke="#fff" stroke-width="1"/>
      </g>
    </g>
  </g>
</svg>
