<svg xmlns="http://www.w3.org/2000/svg" viewBox="0 0 413.541 39.381">
  <defs>
    <style>
      .a {
        fill: #fff;
      }
    </style>
  </defs>
  <g>
    <path class="a" d="M381.033,38.409h4.536V6.657h.108l22.14,31.752h5.724V.177h-4.536V31.929h-.108L386.757.177h-5.724ZM360.151,24.801H344.545l7.938-18.792h.108Zm-26.46,13.608h5.13l3.942-9.396h19.116l3.888,9.396h5.292L354.805.177h-4.266ZM297.268,4.389h8.64a20.6923,20.6923,0,0,1,6.102.864,13.0454,13.0454,0,0,1,4.86,2.673,12.5839,12.5839,0,0,1,3.24,4.617,17.2865,17.2865,0,0,1,1.188,6.75,17.28,17.28,0,0,1-1.188,6.75,12.5672,12.5672,0,0,1-3.24,4.617,13.0174,13.0174,0,0,1-4.86,2.673,20.6594,20.6594,0,0,1-6.102.864h-8.64Zm-4.536,34.02H307.42a19.8385,19.8385,0,0,0,3.996-.432,19.6346,19.6346,0,0,0,4.185-1.377,19.3975,19.3975,0,0,0,3.996-2.457,16.31,16.31,0,0,0,3.375-3.645,18.2171,18.2171,0,0,0,2.322-4.914,21.1756,21.1756,0,0,0,.864-6.291,21.185,21.185,0,0,0-.864-6.291,18.2458,18.2458,0,0,0-2.322-4.914,16.3537,16.3537,0,0,0-3.375-3.645,19.4845,19.4845,0,0,0-3.996-2.457A20.0791,20.0791,0,0,0,307.42.177H292.732ZM260.009,4.389h6.372a25.712,25.712,0,0,1,3.321.216,9.09,9.09,0,0,1,2.97.891,5.4815,5.4815,0,0,1,2.133,1.917,5.9525,5.9525,0,0,1,.81,3.294,5.3825,5.3825,0,0,1-1.107,3.645,6.4828,6.4828,0,0,1-2.808,1.863,13.39,13.39,0,0,1-3.726.702q-2.025.1095-3.915.108h-4.05Zm-4.536,34.02h4.536V21.237h5.832l10.368,17.172h5.562L270.917,20.805a12.123,12.123,0,0,0,7.02-3.294,9.3086,9.3086,0,0,0,2.538-6.804,10.2733,10.2733,0,0,0-1.35-5.643,8.8624,8.8624,0,0,0-3.51-3.159A14.7386,14.7386,0,0,0,270.728.501a46.4155,46.4155,0,0,0-5.481-.324h-9.774ZM191.645.177h-4.536V26.961a17.0148,17.0148,0,0,1-.27,3.051,7.7962,7.7962,0,0,1-.945,2.619,5.0813,5.0813,0,0,1-1.917,1.836,6.4243,6.4243,0,0,1-3.186.702,5.46,5.46,0,0,1-3.861-1.323,6.3425,6.3425,0,0,1-1.863-3.591l-4.536.918a9.5381,9.5381,0,0,0,3.456,6.156,10.8336,10.8336,0,0,0,6.75,2.052,12.15,12.15,0,0,0,5.157-.972,9.2661,9.2661,0,0,0,3.348-2.538,9.9761,9.9761,0,0,0,1.836-3.483,13.5439,13.5439,0,0,0,.567-3.861ZM137.429,38.409h4.536V.177h-4.536Zm-47.466,0h4.536V6.657h.108l22.14,31.752h5.724V.177h-4.536V31.929h-.108L95.687.177H89.963ZM0,38.409H4.536V18.969h.648l18.198,19.44h6.642L10.206,17.619,29.106.177H22.572L5.184,16.701H4.536V.177H0Z"/>
    <path class="a" d="M57.1751,39.341A19.6705,19.6705,0,1,0,37.5041,19.67a19.671,19.671,0,0,0,19.671,19.671"/>
    <path class="a" d="M223.8523,39.341a19.6705,19.6705,0,1,0-19.671-19.671,19.671,19.671,0,0,0,19.671,19.671"/>
  </g>
</svg>
